<svg viewBox="0 0 16 16" fill="none" xmlns="http://www.w3.org/2000/svg" id="Instagram-Alt--Streamline-Unicons" height="16" width="16">
  <desc>
    Instagram Alt Streamline Icon: https://streamlinehq.com
  </desc>
  <path d="M8 6.055666666666667c-0.3845333333333333 0 -0.7604666666666666 0.11406666666666666 -1.0802 0.32766666666666666 -0.3197333333333333 0.21373333333333333 -0.5689333333333333 0.5173333333333333 -0.7161333333333333 0.8725999999999999 -0.14713333333333334 0.3552666666666667 -0.18566666666666667 0.7462666666666666 -0.11059999999999999 1.1234 0.075 0.3771333333333333 0.2602 0.7235999999999999 0.5321333333333333 0.9954666666666667 0.27186666666666665 0.27199999999999996 0.6183333333333333 0.45719999999999994 0.9955333333333334 0.5321333333333333 0.37706666666666666 0.075 0.7680666666666666 0.036533333333333334 1.1233333333333333 -0.11059999999999999 0.3552666666666667 -0.1472 0.6589333333333333 -0.3964 0.8725333333333333 -0.7161333333333333 0.21373333333333333 -0.3197333333333333 0.3277333333333333 -0.6956666666666667 0.3277333333333333 -1.0802 0 -0.2553333333333333 -0.05026666666666666 -0.5082 -0.148 -0.7440666666666667 -0.09773333333333334 -0.23586666666666667 -0.24093333333333333 -0.4502 -0.4215333333333333 -0.6307333333333334 -0.18053333333333332 -0.18059999999999998 -0.3948666666666667 -0.3238 -0.6307333333333334 -0.4215333333333333 -0.23586666666666667 -0.09766666666666665 -0.4887333333333333 -0.148 -0.7440666666666667 -0.148Zm7.785133333333333 -1.9208c-0.004133333333333333 -0.6053999999999999 -0.11566666666666665 -1.2053333333333334 -0.32926666666666665 -1.7718 -0.15739999999999998 -0.4145333333333333 -0.4008666666666666 -0.791 -0.7144 -1.1045333333333334 -0.31353333333333333 -0.31353333333333333 -0.69 -0.5569999999999999 -1.1045333333333334 -0.7144 -0.5664666666666667 -0.21366666666666667 -1.1663999999999999 -0.32513333333333333 -1.7718 -0.32926666666666665C10.853733333333333 0.15999999999999998 10.555866666666667 0.15999999999999998 8 0.15999999999999998s-2.853733333333333 0 -3.865133333333333 0.05486666666666666c-0.6053999999999999 0.004133333333333333 -1.2053333333333334 0.1156 -1.7718 0.32926666666666665 -0.4145333333333333 0.15739999999999998 -0.791 0.4008666666666666 -1.1045333333333334 0.7144 -0.31353333333333333 0.31353333333333333 -0.5569999999999999 0.69 -0.7144 1.1045333333333334 -0.21366666666666667 0.5664666666666667 -0.32513333333333333 1.1663999999999999 -0.32926666666666665 1.7718C0.15999999999999998 5.1462666666666665 0.15999999999999998 5.444133333333333 0.15999999999999998 8s0 2.853733333333333 0.05486666666666666 3.865133333333333c0.008466666666666666 0.6075999999999999 0.11979999999999999 1.2093333333333334 0.32926666666666665 1.7796666666666667 0.15666666666666665 0.41259999999999997 0.39999999999999997 0.7869333333333333 0.7134666666666667 1.0976 0.3122 0.3154 0.6894666666666667 0.5589333333333333 1.1054666666666666 0.7134666666666667 0.5664666666666667 0.2136 1.1663999999999999 0.32513333333333333 1.7718 0.32926666666666665C5.1462666666666665 15.84 5.444133333333333 15.84 8 15.84s2.853733333333333 0 3.865133333333333 -0.05486666666666666c0.6053999999999999 -0.004133333333333333 1.2053333333333334 -0.11566666666666665 1.7718 -0.32926666666666665 0.416 -0.15453333333333333 0.7932666666666666 -0.3980666666666666 1.1054666666666666 -0.7134666666666667 0.31353333333333333 -0.31066666666666665 0.5568 -0.685 0.7134666666666667 -1.0976 0.21346666666666664 -0.5692666666666666 0.32486666666666664 -1.1716666666666666 0.32926666666666665 -1.7796666666666667 0.05486666666666666 -1.0113999999999999 0.05486666666666666 -1.3092666666666666 0.05486666666666666 -3.865133333333333s0 -2.853733333333333 -0.05486666666666666 -3.865133333333333Zm-1.9913999999999998 6.271999999999999c-0.02513333333333333 0.4838 -0.1284 0.9604 -0.3057333333333333 1.4112 -0.1522 0.3761333333333333 -0.3784666666666666 0.7176666666666667 -0.6652666666666667 1.0046666666666666 -0.287 0.28686666666666666 -0.6285333333333333 0.5130666666666666 -1.0046666666666666 0.6652666666666667 -0.4550666666666666 0.16746666666666665 -0.9342666666666666 0.2601333333333333 -1.4189999999999998 0.2744H5.600933333333334c-0.48466666666666663 -0.014266666666666665 -0.9639333333333333 -0.10693333333333332 -1.4189999999999998 -0.2744 -0.38880000000000003 -0.14446666666666666 -0.7398666666666666 -0.375 -1.0270666666666666 -0.6742666666666667 -0.28406666666666663 -0.2812 -0.5034666666666666 -0.621 -0.6428666666666667 -0.9956666666666667 -0.1681333333333333 -0.45459999999999995 -0.25826666666666664 -0.9343333333333332 -0.2665333333333333 -1.4189999999999998V5.600933333333334c0.008266666666666665 -0.4846 0.0984 -0.9644 0.2665333333333333 -1.4189999999999998 0.14446666666666666 -0.38880000000000003 0.375 -0.7398666666666666 0.6742666666666667 -1.0270666666666666 0.28246666666666664 -0.2825333333333333 0.6218666666666666 -0.5016666666666666 0.9956666666666667 -0.6428666666666667 0.4550666666666666 -0.16746666666666665 0.9343333333333332 -0.2601333333333333 1.4189999999999998 -0.2744h4.7981333333333325c0.4847333333333333 0.014266666666666665 0.9639333333333333 0.10693333333333332 1.4189999999999998 0.2744 0.38880000000000003 0.14446666666666666 0.7398666666666666 0.375 1.0270666666666666 0.6742666666666667 0.284 0.28126666666666666 0.5034666666666666 0.621 0.6428666666666667 0.9956666666666667 0.16746666666666665 0.4550666666666666 0.2601333333333333 0.9343333333333332 0.2744 1.4189999999999998V8c0 1.6150666666666667 0.05486666666666666 1.7796666666666667 0.03133333333333333 2.3990666666666662v0.0078ZM12.539333333333333 4.573933333333333c-0.09333333333333334 -0.25326666666666664 -0.24053333333333332 -0.4832666666666666 -0.43133333333333335 -0.6740666666666667 -0.1908 -0.19086666666666666 -0.4208666666666666 -0.3380666666666666 -0.6740666666666667 -0.4314 -0.3477333333333333 -0.12053333333333333 -0.714 -0.17886666666666665 -1.0819333333333332 -0.17246666666666666H5.648c-0.36979999999999996 0.0036 -0.7361333333333333 0.0726 -1.0819333333333332 0.20386666666666667 -0.24933333333333332 0.08906666666666666 -0.47686666666666666 0.23026666666666665 -0.6674666666666667 0.41406666666666664 -0.1906 0.18386666666666665 -0.3399333333333333 0.4061333333333333 -0.43793333333333334 0.6521333333333332 -0.11386666666666667 0.3492 -0.16953333333333334 0.7147333333333333 -0.16466666666666666 1.0819333333333332v4.704c0.0078 0.3694 0.07666666666666666 0.735 0.20386666666666667 1.0819333333333332 0.09333333333333334 0.2532 0.24046666666666666 0.4832666666666666 0.43133333333333335 0.6740666666666667 0.19086666666666666 0.1908 0.4208666666666666 0.33799999999999997 0.6740666666666667 0.43133333333333335 0.33453333333333335 0.12306666666666666 0.6865333333333333 0.19186666666666666 1.0427333333333333 0.20386666666666667h4.704c0.36979999999999996 -0.0036 0.7361333333333333 -0.0726 1.0819333333333332 -0.20386666666666667 0.2532 -0.09333333333333334 0.4832666666666666 -0.24053333333333332 0.6740666666666667 -0.43133333333333335 0.1908 -0.1908 0.33799999999999997 -0.4208666666666666 0.43133333333333335 -0.6740666666666667 0.13126666666666664 -0.3458 0.20026666666666665 -0.7121333333333333 0.20386666666666667 -1.0819333333333332V5.648c0.0002666666666666667 -0.3702 -0.06893333333333333 -0.7371999999999999 -0.20386666666666667 -1.0819333333333332v0.007866666666666666ZM8 10.994866666666667c-0.39293333333333336 0 -0.7819333333333334 -0.07753333333333333 -1.1448666666666667 -0.22813333333333333s-0.6925999999999999 -0.37126666666666663 -0.9700666666666666 -0.6495333333333333c-0.27746666666666664 -0.2782 -0.4973333333333333 -0.6083999999999999 -0.647 -0.9716666666666667 -0.14959999999999998 -0.36333333333333334 -0.22613333333333333 -0.7525999999999999 -0.22513333333333332 -1.1455333333333333 0 -0.5926 0.17586666666666664 -1.172 0.5053333333333333 -1.6646666666666665 0.32939999999999997 -0.49266666666666664 0.7975999999999999 -0.8765333333333333 1.345333333333333 -1.103 0.5476666666666666 -0.2264 1.1502666666666665 -0.28526666666666667 1.7314 -0.16906666666666664 0.5811333333333333 0.1162 1.1147333333333331 0.40219999999999995 1.5333333333333332 0.8217999999999999 0.41846666666666665 0.41966666666666663 0.7031333333333333 0.954 0.8177999999999999 1.5354666666666665 0.11466666666666665 0.5815333333333332 0.054266666666666664 1.1839333333333333 -0.17366666666666666 1.7309999999999999 -0.2278 0.5470666666666666 -0.6129333333333333 1.0142666666666666 -1.1064666666666665 1.3424666666666667 -0.49353333333333327 0.3280666666666666 -1.0733333333333333 0.5024666666666666 -1.666 0.5008666666666666Zm3.1359999999999997 -5.4017333333333335c-0.17333333333333334 -0.018333333333333333 -0.3336666666666666 -0.10019999999999998 -0.45026666666666665 -0.22973333333333334 -0.11653333333333334 -0.12953333333333333 -0.18106666666666665 -0.29766666666666663 -0.18106666666666665 -0.4719333333333333s0.06446666666666666 -0.3423999999999999 0.18106666666666665 -0.472 0.2769333333333333 -0.21133333333333332 0.45026666666666665 -0.22973333333333334c0.17333333333333334 0.0184 0.3336666666666666 0.10019999999999998 0.45026666666666665 0.22973333333333334 0.1166 0.1296 0.18106666666666665 0.29766666666666663 0.18106666666666665 0.472s-0.06446666666666666 0.34233333333333327 -0.18106666666666665 0.4719333333333333 -0.2769333333333333 0.21139999999999998 -0.45026666666666665 0.22973333333333334Z" fill="#000000" stroke-width="0.6667"></path>
</svg>